<?xml version="1.0" encoding="UTF-8"?><svg id="Layer_0_Image" data-name="Layer 0 Image" xmlns="http://www.w3.org/2000/svg" viewBox="0 0 800 600" x="0px" y="0px" width="800px" height="600px" version="1.1" xmlns:xlink="http://www.w3.org/1999/xlink"><title>1</title><path d="M477.9,300.5c-4.68,1.51-6.649,5.558-8.773,9.157-10.026,16.985-26.7,27.317-40.768,40.128-5.091,4.637-14,4.022-20.642-.026-20.352-12.4-35.431-28.359-37.234-53.954-.969-13.756-2.092-27.476-2.187-41.272-.019-2.725,1.321-6.608-2.227-7.659-3.51-1.04-4.642,3.068-6.042,5.213-15.844,24.274-31.437,48.712-47.149,73.073-4.913,7.619-9.446,15.579-15.184,22.533-3.3,4-2.8,14.863-12.527,9.907-15.2-7.743-16.994-11.512-11-24.26,16.061-34.15,35.982-66.216,54.475-99.05,8.016-14.232,16.525-28.185,24.612-42.378,10.742-18.853,19.35-22.082,35.035-1.931,8.092,10.4,11.484,22.608,12.378,35.475,1.632,23.493,2.876,47.013,4.331,70.519.143,2.3-1.8,5.472,1.6,6.622,2.735.925,4.714-1.584,6.589-3.128,17.483-14.393,31.359-32.2,46.241-49.059,8.883-10.062,17.544-20.351,26.906-29.952,8.989-9.217,13.726-6.973,23.58.341,23.337,17.322,20.45,40.536,16.242,63.753-3.316,18.3-8.92,36.2-14.051,54.14-4.685,16.384-7.927,33.712-10.591,50.862-1.113,7.165,2.766,12.668,6.266,17.789,3.718,5.439,3.247,10.979.059,14.752-3.6,4.261-8.074-.89-11.394-2.835-18.629-10.916-26.624-27.425-25.766-49.036.8-20.07,4.844-39.61,7.9-59.325C479.111,307.434,480.564,303.985,477.9,300.5Z"/></svg>